<?xml version="1.0" encoding="iso-8859-1"?>
<!-- Generator: Adobe Illustrator 19.0.0, SVG Export Plug-In . SVG Version: 6.00 Build 0)  -->
<svg version="1.1" id="Capa_1" xmlns="http://www.w3.org/2000/svg" xmlns:xlink="http://www.w3.org/1999/xlink" x="0px" y="0px"
     width="20px" height="20px" viewBox="0 0 469.333 469.333" style="enable-background:new 0 0 469.333 469.333;" xml:space="preserve">
<g>
	<g>
		<g>
			<path style="fill:#303C42;" d="M466.209,436.043L323.594,293.419c24.387-30.884,39.073-69.77,39.073-112.086
				C362.667,81.344,281.313,0,181.334,0S0,81.344,0,181.333s81.354,181.333,181.333,181.333c42.318,0,81.207-14.688,112.095-39.079
				l142.612,142.621c4.167,4.167,10.921,4.167,15.086,0l15.082-15.081C470.374,446.962,470.374,440.208,466.209,436.043z
				 M181.334,320c-76.458,0-138.667-62.208-138.667-138.667c0-76.458,62.208-138.667,138.667-138.667
				c76.458,0,138.667,62.208,138.667,138.667C320.001,257.792,257.792,320,181.334,320z"/>
			<path style="fill:#303C42;" d="M224,96c-16,0-31.021,5.896-42.667,16.479C169.688,101.896,154.667,96,138.667,96
				c-35.292,0-64,28.708-64,64c0,17.094,6.666,33.156,18.792,45.281l80.375,79.625c2.063,2.063,4.792,3.094,7.5,3.094
				c2.708,0,5.438-1.031,7.5-3.094l80.417-79.656C281.334,193.156,288,177.094,288,160C288,124.708,259.292,96,224,96z"/>
		</g>
	</g>
</g>
<g>
</g>
<g>
</g>
<g>
</g>
<g>
</g>
<g>
</g>
<g>
</g>
<g>
</g>
<g>
</g>
<g>
</g>
<g>
</g>
<g>
</g>
<g>
</g>
<g>
</g>
<g>
</g>
<g>
</g>
</svg>
